<?xml version="1.0" encoding="utf-8"?>
<svg viewBox="0 0 190.969 36" xmlns="http://www.w3.org/2000/svg">
  <defs>
    <style>
            .cls-1{fill:#040505}.cls-2{fill:#e4001b}.cls-3{fill:#e1051d}.cls-4{fill:#c40b1e}
        </style>
  </defs>
  <g id="Wynklogo-Horiz-big" transform="matrix(1, 0, 0, 1, -121.015999, -1069.938965)">
    <g id="Horiz-long-colour-trans" transform="translate(121.016 1069.939)">
      <path id="MUSIC" d="M 39.305 15.262 L 39.305 29.331 C 39.341 29.644 39.226 29.955 38.996 30.169 C 38.747 30.338 38.449 30.42 38.149 30.403 C 37.853 30.421 37.559 30.339 37.316 30.169 C 37.092 29.951 36.982 29.642 37.016 29.331 L 37.016 12.376 C 36.97 11.96 37.125 11.546 37.433 11.263 C 38.122 10.862 38.969 10.841 39.677 11.208 C 39.933 11.413 40.128 11.684 40.241 11.991 L 46.53 27.352 L 52.819 11.991 C 52.931 11.686 53.121 11.417 53.37 11.208 C 54.055 10.841 54.882 10.862 55.547 11.263 C 55.839 11.556 55.983 11.965 55.937 12.376 L 55.937 29.331 C 55.971 29.642 55.861 29.951 55.637 30.169 C 55.394 30.339 55.1 30.421 54.804 30.403 C 54.504 30.42 54.207 30.337 53.958 30.169 C 53.728 29.955 53.613 29.644 53.649 29.331 L 53.649 15.231 L 47.844 29.245 C 47.738 29.5 47.572 29.727 47.36 29.905 C 46.825 30.271 46.121 30.271 45.586 29.905 C 45.374 29.727 45.209 29.5 45.102 29.245 Z M 72.792 12.074 C 72.755 11.749 72.869 11.425 73.101 11.195 C 73.355 11.016 73.663 10.928 73.974 10.948 C 74.289 10.93 74.601 11.017 74.861 11.195 C 75.101 11.421 75.221 11.746 75.184 12.074 L 75.184 23.258 C 75.196 24.281 75.033 25.299 74.7 26.267 C 74.399 27.139 73.913 27.936 73.276 28.603 C 72.617 29.275 71.819 29.795 70.938 30.128 C 69.907 30.512 68.813 30.699 67.713 30.678 C 66.617 30.7 65.527 30.513 64.501 30.128 C 63.625 29.793 62.832 29.273 62.176 28.603 C 61.539 27.936 61.053 27.139 60.752 26.267 C 60.419 25.299 60.256 24.281 60.268 23.258 L 60.268 12.074 C 60.231 11.746 60.351 11.421 60.591 11.195 C 60.851 11.017 61.163 10.93 61.478 10.948 C 61.789 10.928 62.097 11.015 62.352 11.195 C 62.584 11.426 62.698 11.749 62.661 12.074 L 62.661 23.062 C 62.544 24.556 63.028 26.034 64.005 27.17 C 66.16 28.984 69.308 28.984 71.463 27.17 C 72.432 26.03 72.91 24.553 72.793 23.062 Z M 87.654 19.874 C 88.951 20.198 90.135 20.867 91.081 21.811 C 91.846 22.739 92.234 23.921 92.169 25.122 C 92.192 25.985 92.013 26.841 91.645 27.622 C 91.313 28.296 90.835 28.887 90.245 29.353 C 89.647 29.818 88.961 30.158 88.229 30.353 C 87.463 30.564 86.672 30.671 85.877 30.669 C 84.569 30.675 83.269 30.48 82.02 30.092 C 80.819 29.724 79.738 29.041 78.889 28.114 C 78.703 27.933 78.56 27.712 78.472 27.468 C 78.43 27.311 78.407 27.15 78.405 26.987 C 78.413 26.674 78.559 26.381 78.805 26.187 C 79.028 25.968 79.325 25.841 79.638 25.83 C 79.793 25.846 79.942 25.903 80.068 25.995 C 80.192 26.085 80.309 26.186 80.417 26.295 C 81.123 27.084 81.995 27.708 82.97 28.122 C 83.882 28.455 84.848 28.618 85.819 28.603 C 86.827 28.644 87.821 28.359 88.654 27.792 C 89.404 27.239 89.823 26.345 89.769 25.415 C 89.812 24.611 89.52 23.825 88.963 23.244 C 88.195 22.591 87.283 22.129 86.302 21.897 L 83.964 21.21 C 82.584 20.886 81.305 20.225 80.242 19.287 C 79.387 18.377 78.944 17.154 79.019 15.907 C 78.996 15.082 79.196 14.266 79.597 13.544 C 79.973 12.895 80.486 12.337 81.102 11.909 C 81.723 11.477 82.414 11.156 83.145 10.961 C 83.867 10.763 84.613 10.662 85.362 10.661 C 86.551 10.652 87.732 10.867 88.842 11.293 C 89.936 11.721 90.889 12.444 91.597 13.381 C 91.719 13.541 91.82 13.717 91.897 13.903 C 91.95 14.044 91.977 14.193 91.978 14.343 C 91.985 14.639 91.856 14.922 91.629 15.112 C 91.424 15.301 91.156 15.408 90.877 15.412 C 90.703 15.414 90.53 15.371 90.377 15.288 C 90.183 15.172 90.006 15.028 89.853 14.862 C 89.282 14.178 88.578 13.617 87.784 13.213 C 87.016 12.869 86.18 12.7 85.338 12.718 C 84.848 12.716 84.36 12.781 83.887 12.91 C 83.44 13.029 83.018 13.224 82.637 13.487 C 82.272 13.741 81.968 14.075 81.75 14.463 C 81.52 14.879 81.404 15.348 81.414 15.823 C 81.41 16.145 81.46 16.466 81.562 16.771 C 81.673 17.075 81.847 17.351 82.073 17.582 C 82.366 17.876 82.707 18.117 83.081 18.297 C 83.6 18.552 84.139 18.763 84.693 18.929 Z M 95.743 12.074 C 95.706 11.749 95.82 11.425 96.052 11.195 C 96.588 10.865 97.263 10.865 97.799 11.195 C 98.031 11.425 98.145 11.749 98.108 12.074 L 98.108 29.274 C 98.145 29.599 98.031 29.923 97.799 30.153 C 97.263 30.483 96.588 30.483 96.052 30.153 C 95.82 29.923 95.706 29.599 95.743 29.274 Z M 115.685 25.182 C 115.806 24.943 115.965 24.725 116.155 24.536 C 116.314 24.396 116.521 24.322 116.733 24.33 C 117.015 24.338 117.292 24.414 117.539 24.55 C 117.835 24.713 118.005 25.038 117.969 25.374 C 117.94 25.837 117.796 26.285 117.552 26.679 C 117.296 27.151 116.994 27.598 116.652 28.012 C 116.527 28.159 116.307 28.383 115.994 28.685 C 115.62 29.032 115.205 29.331 114.758 29.578 C 114.183 29.899 113.575 30.157 112.944 30.348 C 112.159 30.58 111.343 30.691 110.525 30.678 C 109.283 30.695 108.052 30.451 106.91 29.963 C 105.849 29.503 104.9 28.819 104.129 27.957 C 103.328 27.044 102.721 25.978 102.342 24.824 C 101.5 22.136 101.5 19.254 102.342 16.566 C 102.721 15.404 103.328 14.329 104.129 13.406 C 104.897 12.537 105.846 11.848 106.91 11.386 C 108.052 10.898 109.283 10.655 110.525 10.672 C 111.315 10.66 112.102 10.761 112.863 10.972 C 113.469 11.143 114.054 11.377 114.61 11.672 C 115.036 11.897 115.433 12.174 115.792 12.496 C 116.097 12.78 116.321 13.004 116.464 13.169 C 116.81 13.587 117.12 14.033 117.391 14.502 C 117.649 14.891 117.802 15.341 117.834 15.807 C 117.869 16.146 117.693 16.473 117.391 16.631 C 117.138 16.766 116.858 16.842 116.571 16.851 C 116.359 16.859 116.152 16.785 115.993 16.645 C 115.822 16.483 115.681 16.293 115.576 16.082 C 115.364 15.692 115.121 15.32 114.85 14.969 C 114.554 14.584 114.211 14.237 113.829 13.938 C 113.405 13.61 112.933 13.351 112.429 13.169 C 111.825 12.957 111.188 12.856 110.548 12.869 C 109.616 12.85 108.691 13.047 107.848 13.446 C 107.076 13.825 106.401 14.374 105.873 15.053 C 105.311 15.79 104.9 16.63 104.664 17.526 C 104.127 19.598 104.127 21.774 104.664 23.846 C 104.9 24.742 105.311 25.582 105.873 26.319 C 106.401 26.998 107.076 27.548 107.848 27.927 C 108.691 28.326 109.616 28.523 110.548 28.504 C 111.253 28.521 111.955 28.405 112.617 28.16 C 113.607 27.784 114.453 27.106 115.036 26.223 C 115.289 25.84 115.507 25.492 115.688 25.18 Z" class="cls-1"/>
      <g id="wynk-logo">
        <g id="Group_469" data-name="Group 469">
          <path id="Fill-4" d="M177.722 1135.519l-.19 1.729a12.926 12.926 0 1 1-8.694-3.389 12.755 12.755 0 0 1 3.926.618l.161-1.422a14.609 14.609 0 0 0-4.144-.6 14.388 14.388 0 0 0-14.461 14.345 14.681 14.681 0 0 0 14.518 14.4 14.486 14.486 0 0 0 14.41-14.4 14.26 14.26 0 0 0-5.526-11.286" class="cls-3" transform="translate(-150.713 -1125.202)"/>
          <path id="Fill-6" d="M209.618 1171.925l-.308 2.8a8.585 8.585 0 0 1 .815 3.633 9 9 0 0 1-8.873 8.865 8.9 8.9 0 0 1-8.873-8.865 9 9 0 0 1 8.873-8.865 8.6 8.6 0 0 1 3.468.737l.2-1.811a10.214 10.214 0 0 0-3.675-.686 10.547 10.547 0 1 0 10.607 10.526 10.365 10.365 0 0 0-2.238-6.336" class="cls-3" transform="translate(-183.154 -1156.658)"/>
          <path id="Fill-1" d="M122.323 1117.069a16.749 16.749 0 0 1 16.617-16.8h.153v-1.163h-.153a17.959 17.959 0 0 0-17.924 17.958z" class="cls-3" transform="translate(-121.016 -1095.952)"/>
          <path id="Fill-8" d="M255.256 1069.939l-2.046 18.276a6.479 6.479 0 0 0-5.721-1.033c-3.146.908-3.416 3.311-3.418 3.875 0 1.072.8 3.953 4.634 4.566 4.6.613 5.8-2.206 5.989-3.187.244-.956 1.38-11.487 1.38-11.487l.613-5.775s3.248-.13 4.781 1.4a3.866 3.866 0 0 1 .682 4.179c-.224.655-.75 1.282-.09 1.076a4.354 4.354 0 0 0 1.885-2.672 4.942 4.942 0 0 0-2.046-4.444c-.307-.306-2.919-1.862-3.357-2.3a3.237 3.237 0 0 1-1.089-2.1z" class="cls-4" transform="translate(-230.743 -1069.939)"/>
        </g>
      </g>
    </g>
  </g>
</svg>